<svg id="Layer_1" data-name="Layer 1" xmlns="http://www.w3.org/2000/svg" viewBox="0 0 319.44 191.67"><title>thread</title><path d="M83.59,131.1a20.22,20.22,0,0,1,2.72-2,5.54,5.54,0,0,1,3.81-1,3.63,3.63,0,0,1,2.47,1.8,4,4,0,0,1,.6,3,5.58,5.58,0,0,1-2.75,3.4,6,6,0,0,1-1.26.62l2.8,4.62-1.49.9Zm4.86,4.66a5.86,5.86,0,0,0,1.3-.63c1.79-1.09,2.36-2.63,1.4-4.22s-2.45-1.6-4.09-.61a7.28,7.28,0,0,0-1.33,1Z"/><path d="M105.88,125.11c2.41,4,1.27,7.53-1.67,9.32s-6.61.78-8.73-2.7c-2.22-3.66-1.4-7.43,1.68-9.3S103.8,121.69,105.88,125.11ZM97,130.73c1.49,2.46,4.17,3.86,6.51,2.44s2.37-4.41.79-7c-1.39-2.29-4-4-6.52-2.45S95.51,128.2,97,130.73Z"/><path d="M113.91,128.29L103.15,119l1.61-1,5.24,4.59c1.44,1.26,2.72,2.4,3.85,3.56l0,0c-0.48-1.53-.89-3.28-1.29-5.09l-1.51-6.88,1.59-1,2.87,14Z"/><path d="M123.6,115l-4.48,2.72,2.52,4.15,5-3,0.76,1.25L120.92,124l-7-11.53,6.22-3.78L120.9,110l-4.74,2.87,2.21,3.64,4.48-2.72Z"/><path d="M122.43,107.56a18.06,18.06,0,0,1,2.71-2A5.51,5.51,0,0,1,129,104.5a3.36,3.36,0,0,1,2.24,1.64,3.54,3.54,0,0,1-.39,4.26l0,0.05a3.36,3.36,0,0,1,3.1,1.3,21.36,21.36,0,0,0,2.81,2.62l-1.54.93a17.48,17.48,0,0,1-2.44-2.29c-1.31-1.38-2.29-1.61-3.67-.84l-1.4.85,3,5-1.49.9Zm4.67,4.35,1.52-.92c1.59-1,2.07-2.45,1.27-3.77-0.9-1.49-2.37-1.48-4-.55a7.15,7.15,0,0,0-1.39,1Z"/><path d="M134.64,101.66l-3.51,2.13-0.77-1.27,8.53-5.18,0.77,1.27-3.52,2.14L142.37,111l-1.51.91Z"/><path d="M150.22,106.25l-3-4.89-7.67-4.42,1.69-1,3.56,2.19c1,0.6,1.74,1.1,2.59,1.68l0,0c-0.13-1-.2-1.94-0.28-3.08l-0.27-4.19,1.69-1,0.15,9,3,4.91Z"/><path d="M8.8,177.87c41.86,9.31,82-11.16,116.28-33.24C165,118.92,203.62,91.15,242.76,64.34l68.9-47.18c1.58-1.08.08-3.69-1.51-2.59L192.86,94.89c-19.15,13.11-38.23,26.34-57.46,39.32-17.6,11.88-35.71,23.32-55.3,31.68C57.8,175.41,33.59,180.31,9.59,175c-1.88-.42-2.68,2.47-0.8,2.89h0Z"/></svg>