<svg id="Layer_1" data-name="Layer 1" xmlns="http://www.w3.org/2000/svg" viewBox="0 0 310.65 170.19"><title>thread</title><path d="M74.2,87.59a8.65,8.65,0,0,1-3.5-.9c-3.46-1.58-5.07-4.95-3.23-9a6.71,6.71,0,0,1,9.35-3.52,7.21,7.21,0,0,1,2.66,1.87l-1,1.12a6.35,6.35,0,0,0-2.24-1.64c-2.88-1.31-5.62-.34-7.09,2.88-1.37,3-.52,5.72,2.46,7.08a7,7,0,0,0,2.82.67Z"/><path d="M89,87.24c-1.93,4.22-5.51,5.29-8.64,3.86s-4.37-5-2.68-8.74c1.78-3.9,5.36-5.34,8.64-3.85S90.62,83.6,89,87.24ZM79.35,83.1c-1.2,2.62-.85,5.62,1.65,6.75s5-.52,6.25-3.3c1.11-2.44,1-5.57-1.64-6.77S80.58,80.41,79.35,83.1Z"/><path d="M88.16,94.44l5.59-12.27L95.48,83l1.1,8A38.29,38.29,0,0,1,97,96h0c0.6-1.7,1.25-3.21,2.12-5.13l2.34-5.13L103,86.38,97.37,98.64l-1.6-.73-1.06-8a42.77,42.77,0,0,1-.43-5.14H94.22C93.6,86.35,93,87.84,92,89.88l-2.39,5.24Z"/><path d="M100.79,97.87a6.16,6.16,0,0,0,2.47,2.1c1.62,0.74,3,.31,3.52-0.92s0.17-2.1-1.2-3.49c-1.68-1.62-2.44-3.23-1.65-5,0.87-1.91,3.1-2.61,5.49-1.52a6.13,6.13,0,0,1,2.44,1.84l-1,1.09a5.36,5.36,0,0,0-2.06-1.65c-1.67-.76-2.77-0.05-3.15.78-0.52,1.15,0,2.05,1.36,3.48,1.71,1.75,2.31,3.23,1.49,5s-3,2.89-5.91,1.57A7,7,0,0,1,99.78,99Z"/><path d="M116.28,92.45L113,99.71c-1.25,2.75-.56,4.47,1.07,5.22,1.82,0.83,3.53.16,4.77-2.55l3.31-7.26,1.6,0.73L120.46,103c-1.72,3.77-4.41,4.41-7.06,3.2s-3.75-3.45-2-7.25l3.3-7.23Z"/><path d="M133.67,108.69c0.69-1.75,1.52-3.86,2.23-5.38l-0.05,0c-1.08,1.25-2.28,2.54-3.67,4l-4.88,5-1.2-.55,0.68-6.75c0.21-2,.44-3.8.76-5.42l0,0c-0.73,1.51-1.76,3.53-2.71,5.32l-2.73,5.11-1.51-.69L127,97.34l2,0.92-0.61,6.89c-0.18,1.74-.37,3.28-0.65,4.7l0.05,0c0.87-1.1,1.93-2.24,3.18-3.54l4.89-4.94,2,0.92-4.83,12.62-1.55-.71Z"/><path d="M144.48,113.18L139.71,111l-2,4.42,5.32,2.42-0.61,1.33L135.5,116l5.59-12.27,6.62,3-0.61,1.33-5-2.3-1.77,3.88,4.77,2.18Z"/><path d="M150,108a18.16,18.16,0,0,1,3.16,1.13,5.52,5.52,0,0,1,3.09,2.62,3.36,3.36,0,0,1-.1,2.77,3.54,3.54,0,0,1-3.74,2.08l0,0.06A3.36,3.36,0,0,1,153,120a21.37,21.37,0,0,0-.59,3.8l-1.64-.75a17.38,17.38,0,0,1,.52-3.3c0.41-1.86,0-2.79-1.37-3.5l-1.49-.68L146,120.84l-1.58-.72Zm-1,6.31,1.62,0.74c1.69,0.77,3.19.33,3.83-1.07,0.72-1.58-.11-2.8-1.78-3.58a7.16,7.16,0,0,0-1.63-.57Z"/><path d="M161.42,113l-5.59,12.27-1.58-.72,5.59-12.27Z"/><path d="M159.26,124.54a6.16,6.16,0,0,0,2.47,2.1c1.62,0.74,3,.32,3.52-0.92s0.17-2.1-1.2-3.49c-1.68-1.62-2.44-3.23-1.65-5,0.87-1.91,3.1-2.61,5.49-1.52a6.13,6.13,0,0,1,2.44,1.84l-1,1.09a5.37,5.37,0,0,0-2.06-1.65c-1.68-.76-2.77-0.05-3.15.78-0.52,1.15,0,2.05,1.36,3.48,1.71,1.75,2.31,3.23,1.49,5s-3,2.89-5.91,1.57a7,7,0,0,1-2.77-2.21Z"/><path d="M180.36,130c0.69-1.75,1.52-3.86,2.23-5.38l-0.06,0c-1.07,1.25-2.28,2.54-3.67,4l-4.88,5-1.2-.55,0.68-6.75c0.21-2,.44-3.8.76-5.42l0,0c-0.73,1.51-1.76,3.53-2.71,5.32l-2.73,5.11-1.51-.69,6.45-11.88,2,0.92-0.61,6.89c-0.18,1.74-.37,3.28-0.65,4.7l0.05,0c0.87-1.1,1.93-2.24,3.18-3.54l4.89-4.94,2,0.92-4.83,12.62-1.55-.71Z"/><path d="M306.92,155.7c-38.44-18.37-77.42-35.59-116.22-53.18-38.4-17.4-76.06-36.7-115-52.93C53,40.13,29.66,32.16,5.45,27.53c-1.89-.36-2.69,2.53-0.8,2.89C47.51,38.62,87.2,57.25,126.29,75.95c38.17,18.25,76.83,35.41,115.37,52.86,21.33,9.65,42.62,19.39,63.74,29.49,1.73,0.83,3.26-1.76,1.51-2.59h0Z"/></svg>