<svg id="Layer_1" data-name="Layer 1" xmlns="http://www.w3.org/2000/svg" viewBox="0 0 302.17 133.22"><title>threads</title><path d="M150.47,52.71a20.16,20.16,0,0,1,2.84,1.77,5.54,5.54,0,0,1,2.38,3.14,3.63,3.63,0,0,1-.72,3,4,4,0,0,1-2.55,1.7,5.59,5.59,0,0,1-4.2-1.25,6,6,0,0,1-1.06-.93L144,64.47l-1.4-1ZM148,59a5.87,5.87,0,0,0,1.08,1c1.69,1.24,3.33,1.18,4.43-.32s0.55-2.87-1-4a7.31,7.31,0,0,0-1.4-.86Z"/><path d="M164.5,71c-2.75,3.74-6.48,4-9.25,2s-3.24-5.82-.82-9.1c2.54-3.45,6.34-4.12,9.24-2S166.88,67.82,164.5,71Zm-8.56-6c-1.71,2.32-2,5.32.23,6.95s5,0.52,6.8-1.95c1.59-2.16,2.12-5.24-.21-7S157.7,62.63,155.95,65Z"/><path d="M170.23,67.06l1.4,1-7.13,9.68,4.64,3.42-0.87,1.18-6-4.45Z"/><path d="M179.24,73.69l-8,10.86-1.4-1,8-10.86Z"/><path d="M182.87,78.2l-3.3-2.43,0.88-1.19,8,5.92-0.88,1.19-3.32-2.44-7.12,9.67-1.42-1Z"/><path d="M191.09,82.42l-8,10.86-1.4-1,8-10.86Z"/><path d="M193.39,100.31a8.64,8.64,0,0,1-3.25-1.6c-3.06-2.25-3.94-5.88-1.32-9.44a6.71,6.71,0,0,1,9.87-1.53,7.22,7.22,0,0,1,2.22,2.38l-1.18.89A6.34,6.34,0,0,0,197.88,89c-2.54-1.87-5.43-1.49-7.53,1.36-2,2.66-1.68,5.49,1,7.44A7,7,0,0,0,193.92,99Z"/><path d="M196,100.1a6.16,6.16,0,0,0,2,2.56c1.43,1.05,2.83.91,3.63-.18s0.59-2-.46-3.67c-1.31-1.93-1.73-3.66-.6-5.19,1.25-1.69,3.57-1.92,5.68-.36a6.13,6.13,0,0,1,2,2.3l-1.23.86a5.37,5.37,0,0,0-1.68-2c-1.48-1.09-2.7-.62-3.24.12-0.75,1-.45,2,0.62,3.68,1.31,2.06,1.6,3.63.42,5.23s-3.54,2.21-6.1.33a7,7,0,0,1-2.26-2.73Z"/><path d="M-0.89,11.23C46.95,9,95.53,8,139.91,28.69c36.86,17.15,68,43.92,101.34,66.7C259.75,108,279.07,119.44,300,127.47c1.8,0.69,2.59-2.21.8-2.89-39-14.91-71.49-41.68-105.15-65.57-16.42-11.66-33.31-22.81-51.47-31.58A199.45,199.45,0,0,0,82.29,9.26C54.7,5.76,26.81,6.92-.89,8.23c-1.92.09-1.93,3.09,0,3h0Z"/></svg>