<svg id="Layer_1" data-name="Layer 1" xmlns="http://www.w3.org/2000/svg" viewBox="0 0 302.17 95.39"><title>threads</title><path d="M101,56.94a20.22,20.22,0,0,1,3.2-1,5.54,5.54,0,0,1,3.93.27,3.63,3.63,0,0,1,1.76,2.5,4,4,0,0,1-.39,3,5.58,5.58,0,0,1-3.7,2.34,6,6,0,0,1-1.39.19l1.17,5.27-1.7.38Zm3.11,6a5.86,5.86,0,0,0,1.44-.18c2-.46,3.08-1.73,2.67-3.55s-1.8-2.3-3.68-1.89a7.28,7.28,0,0,0-1.57.49Z"/><path d="M124,58.41c1,4.53-1.21,7.54-4.57,8.29s-6.52-1.38-7.4-5.36c-0.93-4.18,1.06-7.49,4.57-8.27S123.13,54.51,124,58.41ZM113.84,60.9c0.63,2.81,2.71,5,5.38,4.4s3.67-3.42,3-6.41c-0.58-2.62-2.56-5-5.39-4.42S113.19,58,113.84,60.9Z"/><path d="M130.59,64l-7.22-12.21,1.84-.41,3.49,6c1,1.65,1.81,3.14,2.5,4.61h0c0-1.61.21-3.39,0.41-5.24l0.78-7,1.82-.4-1.78,14.21Z"/><path d="M144,54.53l-5.12,1.14L140,60.41l5.7-1.27L146,60.57l-7.4,1.65-2.93-13.16,7.11-1.58,0.32,1.43-5.41,1.2,0.93,4.16,5.12-1.14Z"/><path d="M145.31,47.09a18.06,18.06,0,0,1,3.2-1,5.51,5.51,0,0,1,4,.23,3.36,3.36,0,0,1,1.59,2.27,3.54,3.54,0,0,1-1.73,3.91v0.06A3.36,3.36,0,0,1,155,54.78a21.36,21.36,0,0,0,1.82,3.39l-1.76.39a17.48,17.48,0,0,1-1.58-2.95c-0.8-1.73-1.65-2.26-3.21-2l-1.6.36,1.27,5.7-1.7.38Zm3,5.62,1.74-.39c1.82-.4,2.75-1.66,2.41-3.16-0.38-1.7-1.77-2.17-3.58-1.79a7.15,7.15,0,0,0-1.64.53Z"/><path d="M158.77,45.43l-4,.89-0.32-1.45,9.74-2.17,0.32,1.45-4,.9,2.61,11.72-1.72.38Z"/><path d="M172.06,54.77l-1.24-5.58L165,42.53l1.93-.43,2.66,3.22c0.73,0.88,1.3,1.6,1.91,2.42h0c0.18-.94.44-1.9,0.72-3l1.09-4.05,1.93-.43-2.73,8.54,1.25,5.6Z"/><path d="M2.32,88.33A375,375,0,0,1,115.27,36.75a370,370,0,0,1,62-11.08c20.45-1.87,41-1.51,61.49-2.82,21.79-1.39,43.57-5,63-15.46,1.7-.92.19-3.51-1.51-2.59C262.91,24.87,218.79,19,178.11,22.58A376.17,376.17,0,0,0,.81,85.74c-1.59,1.08-.09,3.68,1.51,2.59h0Z"/></svg>