<svg id="Layer_1" data-name="Layer 1" xmlns="http://www.w3.org/2000/svg" viewBox="0 0 302.17 70.72"><title>threads</title><path d="M68.41,13.56l-5.14-1-0.94,4.77,5.73,1.13-0.28,1.43-7.44-1.47L62.95,5.18l7.14,1.41L69.8,8,64.37,7l-0.83,4.18,5.14,1Z"/><path d="M72.56,7.27a24.91,24.91,0,0,1,3.69.44c2.45,0.49,4.09,1.4,5,2.71a6.21,6.21,0,0,1,.93,5.12,7.13,7.13,0,0,1-2.92,4.77c-1.48,1-3.65,1.26-6.22.75A28.09,28.09,0,0,1,70,20.28ZM72,19.3a11,11,0,0,0,1.71.44c3.65,0.72,6-.93,6.74-4.5,0.64-3.12-.74-5.45-4.35-6.16a9.89,9.89,0,0,0-2-.22Z"/><path d="M87.37,10l-1.55,7.83c-0.59,3,.48,4.48,2.25,4.83,2,0.39,3.48-.66,4.05-3.58l1.55-7.83L95.4,11.6l-1.53,7.71c-0.8,4.06-3.27,5.31-6.14,4.74-2.71-.54-4.44-2.49-3.63-6.59l1.54-7.79Z"/><path d="M105.07,26.81a8.64,8.64,0,0,1-3.62-.06c-3.73-.74-6.07-3.65-5.21-8a6.71,6.71,0,0,1,8.28-5.58,7.23,7.23,0,0,1,3,1.21l-0.69,1.31a6.34,6.34,0,0,0-2.56-1.08c-3.1-.61-5.55,1-6.24,4.43-0.64,3.24.81,5.69,4,6.32a7,7,0,0,0,2.9,0Z"/><path d="M110.16,23.94L108,27.83l-1.77-.35,7.11-12.34,2.06,0.41,1.9,14.12-1.83-.36-0.59-4.44Zm4.6-.48-0.54-4.06c-0.12-.92-0.16-1.75-0.21-2.55h0c-0.35.75-.73,1.51-1.14,2.26l-2.05,3.57Z"/><path d="M122.54,18.48l-4-.8,0.29-1.45,9.79,1.94-0.29,1.45-4-.8-2.33,11.77-1.73-.34Z"/><path d="M131.77,18.79L129.16,32l-1.71-.34,2.62-13.23Z"/><path d="M144.78,28.09c-0.9,4.55-4.15,6.42-7.52,5.75S131.85,30,132.64,26c0.83-4.2,4-6.43,7.52-5.73S145.55,24.17,144.78,28.09Zm-10.31-1.81c-0.56,2.83.47,5.66,3.16,6.19s4.73-1.65,5.32-4.66c0.52-2.63-.31-5.65-3.16-6.21S135,23.38,134.47,26.28Z"/><path d="M145.66,35.28l2.62-13.23,1.86,0.37L153.05,30a38.3,38.3,0,0,1,1.52,4.77h0c0.19-1.8.47-3.41,0.88-5.47l1.09-5.53L158.2,24l-2.62,13.23-1.73-.34L151,29.36a42.72,42.72,0,0,1-1.6-4.9h-0.06c-0.23,1.69-.51,3.28-0.94,5.48l-1.12,5.65Z"/><path d="M0.86,36.61c39-6.4,77.71,4.61,115.67,12.55C154.17,57,192.43,60.37,230.82,61.6c22.12,0.71,44.24.8,66.37,0.89a1.5,1.5,0,0,0,0-3c-39.66-.16-79.39-0.32-118.9-4.05a545.06,545.06,0,0,1-59.08-8.78c-19.08-3.94-38-8.66-57.26-11.75C41.42,31.61,20.66,30.34.06,33.72-1.84,34-1,36.92.86,36.61h0Z"/></svg>