<svg id="Layer_1" data-name="Layer 1" xmlns="http://www.w3.org/2000/svg" viewBox="0 0 1280 800"><defs><style>.cls-1{font-size:32px;}.cls-1,.cls-3,.cls-4,.cls-5{font-family:Myriad Pro;}.cls-2{letter-spacing:-2px;}.cls-3{font-size:38px;}.cls-4{font-size:20px;}.cls-5{font-size:34px;font-weight:700;}</style></defs><title>main</title><text class="cls-1" transform="translate(727.29 182.46)">EDU<tspan x="57.76" y="0">C</tspan><tspan class="cls-2" x="76.45" y="0">A</tspan><tspan x="93.57" y="0">TION</tspan></text><text class="cls-1" transform="translate(207.95 486.12)">C<tspan x="17.89" y="0">ONSUMERISM</tspan></text><text class="cls-1" transform="translate(516.06 644.52)">POVE<tspan x="72.67" y="0">R</tspan><tspan x="90.17" y="0">T</tspan><tspan x="106.97" y="0">Y</tspan></text><text class="cls-1" transform="translate(985.14 456.06)">POLITICS</text><text class="cls-3" transform="translate(913.09 745.19)">WICKED P<tspan x="156.14" y="0">R</tspan><tspan x="176.7" y="0">OBLEMS</tspan></text><text class="cls-4" transform="translate(1102.04 84.33)">C<tspan x="11.18" y="0">ONC</tspan><tspan x="49.72" y="0">L</tspan><tspan x="58.44" y="0">USION</tspan></text><text class="cls-4" transform="translate(1154.12 127.93)">ABOUT</text><path d="M667.32,411.06c12.17,28.29,9.12,59.73-5.17,86.6-6.58,12.36-15,23.63-24.3,34.1-8.53,9.64-18.2,18.25-26.48,28.1-8.58,10.21-15.17,21.92-15.08,35.58a1.5,1.5,0,0,0,3,0c-0.09-14.77,8.15-26.95,17.73-37.48,9.08-10,19-19.13,27.63-29.52,16.9-20.28,30.48-44,33-70.73a98.5,98.5,0,0,0-7.74-48.16c-0.76-1.77-3.35-.24-2.59,1.51h0Z"/><path d="M679.53,352A1056.83,1056.83,0,0,1,796.18,207.14c1.34-1.39-.78-3.52-2.12-2.12A1061.28,1061.28,0,0,0,676.94,350.48c-1.08,1.61,1.52,3.11,2.59,1.51h0Z"/><path d="M822.38,404.61c18.38,2.07,29.32,20,39,33.79a162.08,162.08,0,0,0,39.14,39.7c30.54,21.72,71.4,42.75,109.68,30.94,18.08-5.58,33.74-18,41.3-35.53,0.76-1.75-1.83-3.28-2.59-1.51-7.16,16.64-21.71,28.49-38.82,33.94-19,6-39.14,3.43-57.6-3.18-19.18-6.87-37.5-17.54-53.81-29.68a150,150,0,0,1-23.07-21c-5.8-6.58-10.65-13.89-15.72-21-9.35-13.19-20.26-27.51-37.49-29.45-1.92-.22-1.9,2.79,0,3h0Z"/><path d="M540.43,403.57c-30.72,19.85-52.31,49.94-76.26,76.91-12,13.53-24.85,26.63-39.93,36.76-18.26,12.25-38.73,18.22-60.63,19.5-20,1.17-48.79,1.2-59-19.88-0.84-1.74-3.43-.22-2.59,1.51,8,16.49,27.6,21,44.4,21.64,22.39,0.92,45.58-2.21,65.79-12.26,33.87-16.84,56.9-48.72,81.1-76.59,14.52-16.73,30-32.92,48.68-45,1.62-1,.11-3.64-1.51-2.59h0Z"/><path d="M313.35,452.7c48.44-43.16,99.17-83.62,149.39-124.65,24.7-20.18,49-40.83,73.57-61.15,24.11-19.94,49-39.22,76.54-54.3,30.15-16.53,63.46-27.88,98.08-28.53,1.93,0,1.93-3,0-3-61.65,1.15-115.67,34.75-162.41,72C523.31,273.24,499,294.46,474,314.94c-25.56,21-51.31,41.75-76.9,62.72-29,23.82-57.87,47.92-85.92,72.91-1.44,1.29.68,3.4,2.12,2.12h0Z"/><path d="M909.87,180c25.93,23.26,46.84,51.39,67.81,79,21.27,28,40.32,57.12,52.47,90.36a284.58,284.58,0,0,1,14,55.14c0.29,1.9,3.18,1.09,2.89-.8a284,284,0,0,0-32.73-95.94c-17.16-30.71-39.81-58.74-61.8-86.1-12.49-15.54-25.7-30.49-40.56-43.81-1.43-1.29-3.56.83-2.12,2.12h0Z"/><path d="M654.66,637.57c96.72,10.89,198.45,1.39,284-48.2a319.89,319.89,0,0,0,60.25-45c1.4-1.33-.72-3.45-2.12-2.12-68.54,65.27-163.09,93.77-256.14,96.3a618.4,618.4,0,0,1-86-4c-1.92-.22-1.9,2.79,0,3h0Z"/><path d="M289.89,531.34c12.46,24.93,37,39.91,61,52.19,28.89,14.78,58.83,28.89,90.51,36.49a178,178,0,0,0,54.92,4.87c1.91-.14,1.93-3.15,0-3-32.09,2.42-63.5-5.6-93.11-17.42-15.22-6.07-30-13.13-44.69-20.44-12.11-6-24.16-12.35-35.24-20.16-12.72-9-23.8-20-30.81-34-0.86-1.73-3.45-.21-2.59,1.51h0Z"/><path d="M777.24,142.94C723.79,67.89,626.36,38.8,537.74,49.34c-50.65,6-99.35,23.37-144.56,46.62a596.64,596.64,0,0,0-119.25,80.57c-71.66,62.54-128.14,147-138.9,243.26-5.45,48.78,2.27,98,24,142.1a269.33,269.33,0,0,0,86.88,101c40,28,87.46,44.39,135.89,49.22,47.64,4.75,100.23-.33,143.34-22.42A144.33,144.33,0,0,0,554.35,670c1.46-1.27-.67-3.39-2.12-2.12-36.91,32.26-89.67,42.34-137.37,42.79-48.86.46-98-10.88-141.09-34.08C192.3,632.7,137.31,546.77,136.29,453.75c-1.06-97,49-186.9,116.56-253.57,32.31-31.89,68.88-59.33,107.78-82.65C404,91.55,450.71,70.4,500.08,59c46.12-10.67,94.27-12.31,140.44-1.1,42.16,10.23,82.36,30.69,113.1,61.62a199.59,199.59,0,0,1,21,25c1.11,1.56,3.71.06,2.59-1.51h0Z"/><path d="M192.54,478.1c-25.84,30.79-44.36,68-52.16,107.54-3.82,19.37-4.85,40,1.51,58.95,5.83,17.37,17.79,31.65,31.72,43.21,29.6,24.56,66.42,41.27,102.76,53.09,37.44,12.18,76.41,19.07,115.49,23.33,40.58,4.42,81.4,6,122.18,7.22s81.67,2.31,122.5,1.05c79.87-2.46,161.54-14.1,232.67-52.65,36.08-19.55,68.24-45.62,97.2-74.54a602.49,602.49,0,0,0,41-45c11.82-14.47,22.71-30.06,29.34-47.64a95.86,95.86,0,0,0,6-27.26c0.13-1.93-2.87-1.92-3,0-2.78,40.07-32.62,72.28-58.59,100.27C954,654.95,924.23,682,890.66,703.65c-66.77,43.07-145.6,59.56-223.93,64.46-39.42,2.47-79,2.23-118.42,1.29-39.16-.93-78.36-2-117.44-4.73C354,759.29,275.28,746.5,207.72,707.37c-16.12-9.34-32-19.9-44.72-33.7a84.47,84.47,0,0,1-22.61-55.15c-0.73-20.49,4-41,10.46-60.37a239.21,239.21,0,0,1,25.74-53.49,242.27,242.27,0,0,1,18.07-24.44c1.23-1.47-.88-3.6-2.12-2.12h0Z"/><path d="M275,424c-4.85-21,7-40.63,19.42-56.6,12.32-15.81,25.88-30.78,39.08-45.86,26.7-30.49,54.17-60.33,83.09-88.74,57.11-56.11,120.3-106.77,191.85-143.29,70-35.75,148.2-58.16,227.3-56.1,40.37,1.05,81.51,9.06,116.27,30.49,30.88,19,54.94,47.27,73.74,78,20.38,33.28,35.86,69.92,47.22,107.2,12.07,39.61,19,81,18,122.48q-0.37,15.46-2.21,30.82c-0.23,1.91,2.78,1.9,3,0,9.77-82.62-13-167.63-51.27-240.58-16.84-32.06-38.18-62.58-66.36-85.7C943.85,51.23,907,37.9,868.36,32.9c-79.45-10.29-161.62,8.59-234,40.95-75.26,33.64-142,83.29-201.82,139.55-30.38,28.57-59.1,58.87-86.87,90Q324.5,327,304,351.26c-12.24,14.38-25.31,29.5-30.86,47.93a49.46,49.46,0,0,0-1,25.64c0.43,1.88,3.33,1.08,2.89-.8h0Z"/><text class="cls-5" transform="translate(541.07 389.75)">CLI<tspan x="47.29" y="0">M</tspan><tspan class="cls-2" x="75.95" y="0">A</tspan><tspan x="95.44" y="0">TE CHANGE</tspan></text></svg>