<?xml version="1.0" encoding="utf-8"?>
<!-- Generator: Adobe Illustrator 19.2.1, SVG Export Plug-In . SVG Version: 6.00 Build 0)  -->
<svg version="1.1" id="Layer_1" xmlns="http://www.w3.org/2000/svg" xmlns:xlink="http://www.w3.org/1999/xlink" x="0px" y="0px"
	 viewBox="0 0 987.4 800" style="enable-background:new 0 0 987.4 800;" xml:space="preserve">
<style type="text/css">
	.st0{font-family:'MyriadPro-Regular';}
	.st1{font-size:32px;}
	.st2{letter-spacing:-1;}
</style>
<title>main</title>
<text transform="matrix(1 0 0 1 435.1164 405.66)" class="st0 st1">CLI</text>
<text transform="matrix(1 0 0 1 476.4264 405.66)" class="st0 st1">M</text>
<text transform="matrix(1 0 0 1 501.8365 405.66)" class="st0 st1 st2">A</text>
<text transform="matrix(1 0 0 1 518.9564 405.66)" class="st0 st1">TE CHANGE</text>
<text transform="matrix(1 0 0 1 603.9764 182.46)" class="st0 st1">EDU</text>
<text transform="matrix(1 0 0 1 661.7364 182.46)" class="st0 st1">C</text>
<text transform="matrix(1 0 0 1 680.4264 182.46)" class="st0 st1 st2">A</text>
<text transform="matrix(1 0 0 1 697.5464 182.46)" class="st0 st1">TION</text>
<text transform="matrix(1 0 0 1 84.6364 486.12)" class="st0 st1">C</text>
<text transform="matrix(1 0 0 1 102.5264 486.12)" class="st0 st1">ONSUMERISM</text>
<text transform="matrix(1 0 0 1 392.7464 644.52)" class="st0 st1">POVE</text>
<text transform="matrix(1 0 0 1 465.4164 644.52)" class="st0 st1">R</text>
<text transform="matrix(1 0 0 1 482.9164 644.52)" class="st0 st1">T</text>
<text transform="matrix(1 0 0 1 499.7165 644.52)" class="st0 st1">Y</text>
<text transform="matrix(1 0 0 1 861.8264 456.06)" class="st0 st1">POLITICS</text>
<path d="M544,431.7c8.2,16.8,9.9,36.1,4.8,54.1c-4.4,15.6-13.4,29.5-23.8,41.7c-10.1,11.8-22,21.5-33.1,32.3
	c-9.9,9.6-19,21.1-18.9,35.6c0,0.8,0.7,1.5,1.5,1.5s1.5-0.7,1.5-1.5c-0.1-17.5,14-30.1,26-40.8c11.7-10.5,23-21.4,32.4-34.1
	c19.7-26.5,27-59.6,12.2-90.3C545.7,428.4,543.2,430,544,431.7L544,431.7L544,431.7z"/>
<path d="M556.2,352c34.6-51.6,73.6-100.1,116.6-144.9c1.3-1.4-0.8-3.5-2.1-2.1c-43.2,45-82.4,93.6-117.1,145.5
	C552.5,352.1,555.1,353.6,556.2,352L556.2,352L556.2,352z"/>
<path d="M682.4,395.8c18.8,3.1,29.2,20.6,38.7,35.3c10.4,16.5,23.6,31,39.1,42.9c31.4,24.1,72.9,47.2,113.8,38
	c19-4.3,36.6-15.5,46-32.9c0.9-1.7-1.7-3.2-2.6-1.5c-8.8,16.4-25,26.8-42.7,31.2c-20,4.9-40.7,1.4-59.6-6.1
	c-20-7.9-38.9-19.8-55.7-33.1c-7.9-6.2-15.2-13.1-21.8-20.7c-6.1-7.1-11.1-15-16.2-22.9c-9.3-14.3-20.1-30.1-38.2-33.1
	C681.3,392.6,680.5,395.5,682.4,395.8L682.4,395.8L682.4,395.8z"/>
<path d="M424.2,399.7c-31.8,20.5-54,51.6-78.8,79.5c-12.4,13.9-25.5,27.3-41,37.6c-18.6,12.5-39.5,18.6-61.8,19.9
	c-20.7,1.3-50.7,1.4-61.3-20.5c-0.8-1.7-3.4-0.2-2.6,1.5c8.4,17.2,29,21.7,46.5,22.3c22.7,0.8,46-2.4,66.5-12.5
	c35.2-17.3,59.1-50.5,84.2-79.4c14.9-17.1,30.7-33.6,49.8-45.9C427.4,401.3,425.9,398.6,424.2,399.7L424.2,399.7L424.2,399.7z"/>
<path d="M190,452.7c48.4-43.2,99.2-83.6,149.4-124.6c24.7-20.2,49-40.8,73.6-61.1c24.1-19.9,49-39.2,76.5-54.3
	c30.1-16.5,63.5-27.9,98.1-28.5c1.9,0,1.9-3,0-3c-61.7,1.1-115.7,34.8-162.4,72c-25.2,20.2-49.5,41.4-74.5,61.9
	c-25.6,21-51.3,41.8-76.9,62.7c-29,23.8-57.9,47.9-85.9,72.9C186.4,451.9,188.5,454,190,452.7L190,452.7L190,452.7z"/>
<path d="M786.6,180c25.9,23.3,46.8,51.4,67.8,79c21.3,28,40.3,57.1,52.5,90.4c6.5,17.9,11.2,36.3,14,55.1c0.3,1.9,3.2,1.1,2.9-0.8
	c-5.1-33.7-16.2-66.2-32.7-95.9c-17.2-30.7-39.8-58.7-61.8-86.1c-12.5-15.5-25.7-30.5-40.6-43.8C787.2,176.6,785.1,178.7,786.6,180
	L786.6,180L786.6,180z"/>
<path d="M531.3,637.6c96.7,10.9,198.5,1.4,284-48.2c21.8-12.6,42-27.7,60.2-45c1.4-1.3-0.7-3.5-2.1-2.1
	c-68.5,65.3-163.1,93.8-256.1,96.3c-28.7,0.7-57.5-0.7-86-4C529.4,634.3,529.4,637.3,531.3,637.6L531.3,637.6L531.3,637.6z"/>
<path d="M166.6,531.3c12.5,24.9,37,39.9,61,52.2c28.9,14.8,58.8,28.9,90.5,36.5c17.9,4.5,36.5,6.1,54.9,4.9c1.9-0.1,1.9-3.2,0-3
	c-32.1,2.4-63.5-5.6-93.1-17.4c-15.2-6.1-30-13.1-44.7-20.4c-12.1-6-24.2-12.3-35.2-20.2c-12.7-9-23.8-20-30.8-34
	C168.3,528.1,165.7,529.7,166.6,531.3L166.6,531.3L166.6,531.3z"/>
<path d="M653.9,142.9C600.5,67.9,503,38.8,414.4,49.3c-50.6,6-99.4,23.4-144.6,46.6c-42.9,21.9-82.9,49-119.3,80.6
	C79,239.1,22.5,323.5,11.7,419.8c-5.4,48.8,2.3,98,24,142.1c20,40.4,49.9,75.1,86.9,101c40,28,87.5,44.4,135.9,49.2
	c47.6,4.8,100.2-0.3,143.3-22.4c10.5-5.3,20.3-12,29.2-19.7c1.5-1.3-0.7-3.4-2.1-2.1c-36.9,32.3-89.7,42.3-137.4,42.8
	c-48.9,0.5-98-10.9-141.1-34.1C69,632.7,14,546.8,13,453.8c-1.1-97,49-186.9,116.6-253.6c32.3-31.9,68.9-59.3,107.8-82.7
	c43.4-26,90.1-47.1,139.4-58.5c46.1-10.7,94.3-12.3,140.4-1.1c42.2,10.2,82.4,30.7,113.1,61.6c7.7,7.7,14.7,16.1,21,25
	C652.4,146.1,655,144.6,653.9,142.9L653.9,142.9L653.9,142.9z"/>
<path d="M69.2,478.1c-25.8,30.8-44.4,68-52.2,107.5c-3.8,19.4-4.9,40,1.5,59c5.8,17.4,17.8,31.7,31.7,43.2
	c29.6,24.6,66.4,41.3,102.8,53.1c37.4,12.2,76.4,19.1,115.5,23.3c40.6,4.4,81.4,6,122.2,7.2s81.7,2.3,122.5,1
	c79.9-2.5,161.5-14.1,232.7-52.7c36.1-19.5,68.2-45.6,97.2-74.5c14.4-14.3,28.1-29.3,41-45c11.8-14.5,22.7-30.1,29.3-47.6
	c3.3-8.7,5.3-17.9,6-27.3c0.1-1.9-2.9-1.9-3,0c-2.8,40.1-32.6,72.3-58.6,100.3c-27.2,29.3-56.9,56.3-90.5,78
	c-66.8,43.1-145.6,59.6-223.9,64.5c-39.4,2.5-79,2.2-118.4,1.3c-39.2-0.9-78.4-2-117.4-4.7c-76.9-5.4-155.6-18.2-223.1-57.3
	c-16.1-9.3-32-19.9-44.7-33.7c-14-15-22-34.6-22.6-55.2c-0.7-20.5,4-41,10.5-60.4c6.3-18.8,15-36.8,25.7-53.5
	c5.5-8.5,11.5-16.7,18.1-24.4C72.6,478.7,70.5,476.6,69.2,478.1L69.2,478.1L69.2,478.1z"/>
<path d="M151.7,424c-4.9-21,7-40.6,19.4-56.6c12.3-15.8,25.9-30.8,39.1-45.9c26.7-30.5,54.2-60.3,83.1-88.7
	C350.4,176.7,413.6,126,485.1,89.5c70-35.8,148.2-58.2,227.3-56.1c40.4,1,81.5,9.1,116.3,30.5c30.9,19,54.9,47.3,73.7,78
	c20.4,33.3,35.9,69.9,47.2,107.2c12.1,39.6,19,81,18,122.5c-0.2,10.3-1,20.6-2.2,30.8c-0.2,1.9,2.8,1.9,3,0
	c9.8-82.6-13-167.6-51.3-240.6c-16.8-32.1-38.2-62.6-66.4-85.7C820.5,51.2,783.7,37.9,745,32.9c-79.5-10.3-161.6,8.6-234,41
	c-75.3,33.6-142,83.3-201.8,139.6c-30.4,28.6-59.1,58.9-86.9,90c-14.1,15.7-28,31.7-41.7,47.9c-12.2,14.4-25.3,29.5-30.9,47.9
	c-2.6,8.3-2.9,17.2-1,25.6C149.3,426.7,152.2,425.9,151.7,424L151.7,424L151.7,424z"/>
</svg>
