<svg id="Layer_1" data-name="Layer 1" xmlns="http://www.w3.org/2000/svg" viewBox="0 0 1280 800"><defs><style>.cls-1{font-size:32px;}.cls-1,.cls-3{font-family:Myriad Pro;}.cls-2{letter-spacing:-2px;}.cls-3{font-size:20px;}</style></defs><title>menu</title><text class="cls-1" transform="translate(558.43 405.66)">CLI<tspan x="41.31" y="0">M</tspan><tspan class="cls-2" x="66.72" y="0">A</tspan><tspan x="83.84" y="0">TE CHANGE</tspan></text><text class="cls-1" transform="translate(727.29 182.46)">EDU<tspan x="57.76" y="0">C</tspan><tspan class="cls-2" x="76.45" y="0">A</tspan><tspan x="93.57" y="0">TION</tspan></text><text class="cls-1" transform="translate(207.95 486.12)">C<tspan x="17.89" y="0">ONSUMERISM</tspan></text><text class="cls-1" transform="translate(516.06 644.52)">POVE<tspan x="72.67" y="0">R</tspan><tspan x="90.17" y="0">T</tspan><tspan x="106.97" y="0">Y</tspan></text><text class="cls-1" transform="translate(985.14 456.06)">POLITICS</text><text class="cls-1" transform="translate(952.9 735.36)">WICKED P<tspan x="131.49" y="0">R</tspan><tspan x="148.8" y="0">OBLEMS</tspan></text><text class="cls-3" transform="translate(1102.04 77.33)">C<tspan x="11.18" y="0">ONC</tspan><tspan x="49.72" y="0">L</tspan><tspan x="58.44" y="0">USION</tspan></text><text class="cls-3" transform="translate(1154.12 120.93)">ABOUT</text><path d="M667.32,431.69a76.36,76.36,0,0,1,4.82,54.14c-4.43,15.58-13.39,29.45-23.85,41.65-10.11,11.79-22,21.55-33.07,32.33-9.92,9.64-19,21.14-18.93,35.62a1.5,1.5,0,0,0,3,0c-0.09-17.47,14-30.09,26-40.84,11.71-10.47,23-21.44,32.38-34.09,19.67-26.53,27-59.63,12.23-90.32-0.84-1.74-3.43-.22-2.59,1.51h0Z"/><path d="M679.53,352A1056.83,1056.83,0,0,1,796.18,207.14c1.34-1.39-.78-3.52-2.12-2.12A1061.28,1061.28,0,0,0,676.94,350.48c-1.08,1.61,1.52,3.11,2.59,1.51h0Z"/><path d="M805.68,395.77c18.76,3.14,29.17,20.63,38.66,35.34A167.07,167.07,0,0,0,883.39,474c31.39,24.12,72.88,47.23,113.81,38,19-4.31,36.58-15.45,45.95-32.91,0.91-1.7-1.68-3.22-2.59-1.51-8.78,16.37-25,26.84-42.74,31.2-20,4.89-40.7,1.37-59.57-6.07-20-7.87-38.91-19.75-55.68-33.1a159,159,0,0,1-21.75-20.67c-6.12-7.13-11.1-15-16.19-22.89-9.27-14.31-20.09-30.12-38.15-33.14-1.89-.32-2.7,2.57-0.8,2.89h0Z"/><path d="M547.54,399.68c-31.75,20.49-54,51.62-78.81,79.46-12.35,13.87-25.54,27.28-41,37.64-18.64,12.45-39.5,18.56-61.82,19.92-20.73,1.27-50.69,1.4-61.31-20.45-0.84-1.74-3.43-.22-2.59,1.51,8.37,17.22,29,21.7,46.51,22.28,22.67,0.76,46-2.36,66.52-12.45,35.23-17.34,59.09-50.49,84.24-79.38,14.87-17.08,30.68-33.6,49.81-45.94,1.62-1,.11-3.64-1.51-2.59h0Z"/><path d="M313.35,452.7c48.44-43.16,99.17-83.62,149.39-124.65,24.7-20.18,49-40.83,73.57-61.15,24.11-19.94,49-39.22,76.54-54.3,30.15-16.53,63.46-27.88,98.08-28.53,1.93,0,1.93-3,0-3-61.65,1.15-115.67,34.75-162.41,72C523.31,273.24,499,294.46,474,314.94c-25.56,21-51.31,41.75-76.9,62.72-29,23.82-57.87,47.92-85.92,72.91-1.44,1.29.68,3.4,2.12,2.12h0Z"/><path d="M909.87,180c25.93,23.26,46.84,51.39,67.81,79,21.27,28,40.32,57.12,52.47,90.36a284.58,284.58,0,0,1,14,55.14c0.29,1.9,3.18,1.09,2.89-.8a284,284,0,0,0-32.73-95.94c-17.16-30.71-39.81-58.74-61.8-86.1-12.49-15.54-25.7-30.49-40.56-43.81-1.43-1.29-3.56.83-2.12,2.12h0Z"/><path d="M654.66,637.57c96.72,10.89,198.45,1.39,284-48.2a319.89,319.89,0,0,0,60.25-45c1.4-1.33-.72-3.45-2.12-2.12-68.54,65.27-163.09,93.77-256.14,96.3a618.4,618.4,0,0,1-86-4c-1.92-.22-1.9,2.79,0,3h0Z"/><path d="M289.89,531.34c12.46,24.93,37,39.91,61,52.19,28.89,14.78,58.83,28.89,90.51,36.49a178,178,0,0,0,54.92,4.87c1.91-.14,1.93-3.15,0-3-32.09,2.42-63.5-5.6-93.11-17.42-15.22-6.07-30-13.13-44.69-20.44-12.11-6-24.16-12.35-35.24-20.16-12.72-9-23.8-20-30.81-34-0.86-1.73-3.45-.21-2.59,1.51h0Z"/><path d="M777.24,142.94C723.79,67.89,626.36,38.8,537.74,49.34c-50.65,6-99.35,23.37-144.56,46.62a596.64,596.64,0,0,0-119.25,80.57c-71.66,62.54-128.14,147-138.9,243.26-5.45,48.78,2.27,98,24,142.1a269.33,269.33,0,0,0,86.88,101c40,28,87.46,44.39,135.89,49.22,47.64,4.75,100.23-.33,143.34-22.42A144.33,144.33,0,0,0,554.35,670c1.46-1.27-.67-3.39-2.12-2.12-36.91,32.26-89.67,42.34-137.37,42.79-48.86.46-98-10.88-141.09-34.08C192.3,632.7,137.31,546.77,136.29,453.75c-1.06-97,49-186.9,116.56-253.57,32.31-31.89,68.88-59.33,107.78-82.65C404,91.55,450.71,70.4,500.08,59c46.12-10.67,94.27-12.31,140.44-1.1,42.16,10.23,82.36,30.69,113.1,61.62a199.59,199.59,0,0,1,21,25c1.11,1.56,3.71.06,2.59-1.51h0Z"/><path d="M192.54,478.1c-25.84,30.79-44.36,68-52.16,107.54-3.82,19.37-4.85,40,1.51,58.95,5.83,17.37,17.79,31.65,31.72,43.21,29.6,24.56,66.42,41.27,102.76,53.09,37.44,12.18,76.41,19.07,115.49,23.33,40.58,4.42,81.4,6,122.18,7.22s81.67,2.31,122.5,1.05c79.87-2.46,161.54-14.1,232.67-52.65,36.08-19.55,68.24-45.62,97.2-74.54a602.49,602.49,0,0,0,41-45c11.82-14.47,22.71-30.06,29.34-47.64a95.86,95.86,0,0,0,6-27.26c0.13-1.93-2.87-1.92-3,0-2.78,40.07-32.62,72.28-58.59,100.27C954,654.95,924.23,682,890.66,703.65c-66.77,43.07-145.6,59.56-223.93,64.46-39.42,2.47-79,2.23-118.42,1.29-39.16-.93-78.36-2-117.44-4.73C354,759.29,275.28,746.5,207.72,707.37c-16.12-9.34-32-19.9-44.72-33.7a84.47,84.47,0,0,1-22.61-55.15c-0.73-20.49,4-41,10.46-60.37a239.21,239.21,0,0,1,25.74-53.49,242.27,242.27,0,0,1,18.07-24.44c1.23-1.47-.88-3.6-2.12-2.12h0Z"/><path d="M275,424c-4.85-21,7-40.63,19.42-56.6,12.32-15.81,25.88-30.78,39.08-45.86,26.7-30.49,54.17-60.33,83.09-88.74,57.11-56.11,120.3-106.77,191.85-143.29,70-35.75,148.2-58.16,227.3-56.1,40.37,1.05,81.51,9.06,116.27,30.49,30.88,19,54.94,47.27,73.74,78,20.38,33.28,35.86,69.92,47.22,107.2,12.07,39.61,19,81,18,122.48q-0.37,15.46-2.21,30.82c-0.23,1.91,2.78,1.9,3,0,9.77-82.62-13-167.63-51.27-240.58-16.84-32.06-38.18-62.58-66.36-85.7C943.85,51.23,907,37.9,868.36,32.9c-79.45-10.29-161.62,8.59-234,40.95-75.26,33.64-142,83.29-201.82,139.55-30.38,28.57-59.1,58.87-86.87,90Q324.5,327,304,351.26c-12.24,14.38-25.31,29.5-30.86,47.93a49.46,49.46,0,0,0-1,25.64c0.43,1.88,3.33,1.08,2.89-.8h0Z"/></svg>