<svg id="Layer_1" data-name="Layer 1" xmlns="http://www.w3.org/2000/svg" viewBox="0 0 302.17 113.73"><title>threads</title><path d="M151.3,56.87l-4.55-2.6-2.41,4.22,5.07,2.9-0.73,1.27-6.58-3.76,6.69-11.7,6.32,3.62-0.73,1.27-4.81-2.75L147.47,53l4.55,2.6Z"/><path d="M157.25,52.23a24.91,24.91,0,0,1,3.35,1.59c2.17,1.24,3.43,2.63,3.91,4.17a6.21,6.21,0,0,1-.75,5.15,7.13,7.13,0,0,1-4.29,3.59c-1.72.47-3.86,0-6.14-1.28a28.09,28.09,0,0,1-2.66-1.71Zm-4.41,11.21a11,11,0,0,0,1.48,1c3.23,1.85,6,1,7.82-2.12,1.6-2.75,1-5.4-2.16-7.23a9.89,9.89,0,0,0-1.86-.86Z"/><path d="M170.41,59.55l-4,6.93c-1.5,2.62-1,4.4.59,5.29,1.74,1,3.5.48,5-2.1l4-6.93,1.53,0.87-3.9,6.82c-2.06,3.59-4.79,4-7.33,2.54s-3.42-3.77-1.34-7.4l3.94-6.89Z"/><path d="M181.84,81.11a8.64,8.64,0,0,1-3.41-1.21c-3.3-1.89-4.59-5.39-2.4-9.23A6.71,6.71,0,0,1,185.66,68a7.23,7.23,0,0,1,2.48,2.11l-1.07,1A6.34,6.34,0,0,0,185,69.32c-2.74-1.57-5.57-.86-7.33,2.22-1.64,2.87-1,5.65,1.81,7.28a7,7,0,0,0,2.74.92Z"/><path d="M187.58,80l-3.32,3-1.56-.89,10.67-9.43,1.82,1-2.7,14-1.61-.92,0.86-4.4Zm4.51,1,0.78-4c0.18-.91.4-1.71,0.61-2.48l0,0c-0.57.6-1.17,1.2-1.8,1.78L188.57,79Z"/><path d="M201,78.78l-3.56-2,0.74-1.29,8.66,5-0.74,1.29-3.58-2-6,10.42-1.53-.87Z"/><path d="M209.7,82L203,93.73l-1.51-.86,6.69-11.7Z"/><path d="M219.06,95c-2.3,4-6,4.76-9,3.06s-3.89-5.41-1.86-8.95c2.13-3.72,5.83-4.83,9-3S221,91.51,219.06,95Zm-9.19-5c-1.43,2.5-1.36,5.52,1,6.88s5-.06,6.53-2.72c1.33-2.33,1.51-5.45-1-6.89S211.34,87.41,209.87,90Z"/><path d="M217.61,102.08l6.69-11.7,1.65,0.94,0.36,8.07a38.3,38.3,0,0,1-.07,5h0c0.76-1.64,1.54-3.09,2.58-4.91l2.8-4.9,1.42,0.81-6.69,11.7-1.53-.87-0.32-8.06a42.72,42.72,0,0,1,0-5.16h-0.06c-0.76,1.53-1.53,3-2.64,4.9l-2.86,5Z"/><path d="M-0.32,10.89C43.13,10,87.41,11.26,129.31,24c40.41,12.26,74.77,36.84,111.31,57.12a288.47,288.47,0,0,0,30.18,15c10.12,4.15,20.85,6.78,31.66,3.89a1.5,1.5,0,0,0-.8-2.89c-11.65,3.11-23.17-.75-33.8-5.51-9.31-4.18-18.36-8.94-27.26-13.93-17.84-10-35.09-21-52.9-31C170.14,36.78,152,28,132.72,21.89,113.11,15.7,92.77,12.07,72.33,10,48.2,7.6,23.91,7.42-.32,7.89c-1.93,0-1.93,3,0,3h0Z"/></svg>