<svg id="Layer_1" data-name="Layer 1" xmlns="http://www.w3.org/2000/svg" viewBox="0 0 302.17 125.4"><title>threads</title><path d="M128.52,68.85a8.65,8.65,0,0,1-3,2.05c-3.46,1.57-7.06.56-8.88-3.47a6.71,6.71,0,0,1,3.5-9.36,7.21,7.21,0,0,1,3.16-.77l0.2,1.47a6.35,6.35,0,0,0-2.71.61c-2.88,1.3-4,4-2.5,7.24,1.36,3,4,4.16,7,2.8a7,7,0,0,0,2.36-1.68Z"/><path d="M138,57.51c1.91,4.23.36,7.63-2.78,9.05s-6.66,0-8.34-3.73c-1.77-3.9-.5-7.55,2.78-9S136.32,53.86,138,57.51ZM128.53,62c1.19,2.62,3.67,4.33,6.17,3.2s2.89-4.1,1.63-6.88c-1.11-2.44-3.54-4.42-6.18-3.22S127.31,59.33,128.53,62Z"/><path d="M142.86,62.85L137.3,50.56l1.73-.78,6.75,4.43a38.29,38.29,0,0,1,4,3l0,0c-0.89-1.57-1.6-3.05-2.47-5L145,47.07l1.49-.68,5.56,12.28-1.6.73-6.72-4.47a42.77,42.77,0,0,1-4.15-3.06l0,0c0.79,1.51,1.5,3,2.42,5l2.38,5.25Z"/><path d="M153.76,55.59A6.16,6.16,0,0,0,157,55.1c1.62-.73,2.18-2,1.62-3.26s-1.47-1.51-3.42-1.39c-2.33.2-4-.28-4.82-2-0.87-1.91.08-4.05,2.46-5.13a6.13,6.13,0,0,1,3-.63l0.15,1.49a5.36,5.36,0,0,0-2.6.47c-1.68.76-1.86,2.05-1.48,2.89,0.52,1.15,1.52,1.38,3.52,1.26,2.44-.14,4,0.39,4.77,2.19s0.2,4.17-2.7,5.48a7,7,0,0,1-3.49.63Z"/><path d="M159.86,40.36l3.29,7.27c1.25,2.75,3,3.37,4.63,2.62,1.82-.83,2.44-2.56,1.22-5.27l-3.29-7.27,1.6-.73,3.24,7.16c1.71,3.77.42,6.22-2.24,7.43s-5.06.56-6.79-3.25l-3.27-7.23Z"/><path d="M183.53,37.94c-0.87-1.67-1.91-3.68-2.58-5.22l-0.05,0c0.23,1.63.41,3.39,0.56,5.37L182,45.05l-1.2.54-4.63-5c-1.37-1.47-2.58-2.83-3.58-4.13l0,0c0.66,1.55,1.5,3.65,2.22,5.54l2.06,5.42-1.51.68-4.7-12.67,2-.92,4.79,5c1.2,1.28,2.22,2.44,3.11,3.58l0.05,0c-0.25-1.38-.42-2.93-0.58-4.72l-0.5-6.93,2-.92,6.33,11.94-1.55.7Z"/><path d="M194,32.75l-4.78,2.16,2,4.43,5.32-2.41,0.6,1.33-6.91,3.13-5.56-12.28,6.63-3,0.6,1.33-5,2.28,1.76,3.88,4.78-2.16Z"/><path d="M193.75,25.21a18.16,18.16,0,0,1,2.93-1.63,5.52,5.52,0,0,1,4-.61,3.36,3.36,0,0,1,2,1.9,3.54,3.54,0,0,1-.9,4.18l0,0.06a3.36,3.36,0,0,1,2.93,1.66,21.37,21.37,0,0,0,2.47,2.94l-1.64.74a17.38,17.38,0,0,1-2.15-2.56c-1.13-1.53-2.08-1.87-3.54-1.27l-1.49.68,2.41,5.32-1.59.72Zm4.12,4.88,1.62-.73c1.69-.77,2.35-2.18,1.71-3.59-0.72-1.59-2.18-1.76-3.86-1a7.16,7.16,0,0,0-1.5.86Z"/><path d="M205.06,19.9l5.56,12.28L209,32.9l-5.56-12.28Z"/><path d="M212.3,29.09a6.16,6.16,0,0,0,3.21-.48c1.62-.73,2.18-2,1.62-3.26s-1.47-1.51-3.42-1.39c-2.33.2-4-.28-4.82-2-0.87-1.91.08-4.05,2.46-5.13a6.13,6.13,0,0,1,3-.63l0.15,1.49a5.37,5.37,0,0,0-2.6.47c-1.68.76-1.86,2.05-1.48,2.89,0.52,1.15,1.52,1.38,3.51,1.26,2.44-.14,4,0.39,4.77,2.19s0.2,4.17-2.7,5.48a7,7,0,0,1-3.49.64Z"/><path d="M230.28,16.78c-0.87-1.67-1.91-3.68-2.58-5.22l-0.06,0c0.23,1.63.42,3.39,0.56,5.37l0.53,6.94-1.2.54-4.64-5c-1.37-1.47-2.58-2.83-3.58-4.13l0,0c0.66,1.55,1.5,3.65,2.22,5.54l2.06,5.42L222,27l-4.7-12.67,2-.92,4.79,5c1.19,1.28,2.22,2.44,3.11,3.58l0.05,0c-0.25-1.38-.42-2.93-0.58-4.72l-0.5-6.93,2-.92,6.32,11.94L233,22Z"/><path d="M-0.53,115.59c85,12.09,159.31-39.83,233.53-72,21.69-9.4,44.05-17.29,67.27-21.94,1.89-.38,1.09-3.27-0.8-2.89C218.66,34.93,152.35,89.69,72.39,108.49c-23.62,5.56-48,7.63-72.13,4.2-1.89-.27-2.7,2.62-0.8,2.89h0Z"/></svg>