<svg id="Layer_1" data-name="Layer 1" xmlns="http://www.w3.org/2000/svg" viewBox="0 0 302.17 157.48"><title>threads</title><path d="M145.11,117.32a20.16,20.16,0,0,1,2.72-2,5.54,5.54,0,0,1,3.81-1,3.63,3.63,0,0,1,2.48,1.8,4,4,0,0,1,.61,3,5.59,5.59,0,0,1-2.75,3.41,6,6,0,0,1-1.26.63l2.81,4.61-1.49.9ZM150,122a5.87,5.87,0,0,0,1.3-.63c1.79-1.09,2.36-2.63,1.39-4.22s-2.45-1.6-4.09-.6a7.31,7.31,0,0,0-1.33,1Z"/><path d="M167.39,111.31c2.41,4,1.28,7.53-1.66,9.32s-6.61.79-8.73-2.69c-2.23-3.66-1.41-7.43,1.67-9.3S165.31,107.89,167.39,111.31Zm-8.82,5.63c1.5,2.46,4.17,3.85,6.51,2.43s2.37-4.42.78-7c-1.39-2.29-4-4-6.52-2.45S157,114.4,158.57,116.93Z"/><path d="M165.89,104.49l1.49-.9,6.25,10.27,4.92-3,0.76,1.25-6.41,3.9Z"/><path d="M175.44,98.68l7,11.52-1.49.9-7-11.52Z"/><path d="M181,97l-3.5,2.13-0.77-1.26,8.53-5.19L186,94l-3.52,2.14,6.24,10.25-1.5.92Z"/><path d="M188,91l7,11.52-1.49.9-7-11.52Z"/><path d="M205.44,95.69a8.64,8.64,0,0,1-2.71,2.4c-3.25,2-6.94,1.41-9.24-2.36A6.71,6.71,0,0,1,195.82,86a7.22,7.22,0,0,1,3-1.15l0.38,1.43a6.34,6.34,0,0,0-2.62.94c-2.7,1.64-3.44,4.46-1.6,7.49,1.72,2.82,4.44,3.64,7.24,1.94a7,7,0,0,0,2.14-2Z"/><path d="M206.22,93.25a6.16,6.16,0,0,0,3.12-.87c1.52-.92,1.92-2.27,1.21-3.43s-1.65-1.32-3.56-1c-2.29.48-4,.21-5-1.41-1.09-1.79-.42-4,1.82-5.39a6.13,6.13,0,0,1,2.89-1L207,81.65a5.37,5.37,0,0,0-2.52.78c-1.57,1-1.6,2.26-1.12,3,0.66,1.08,1.68,1.18,3.64.83,2.41-.43,4-0.1,5,1.6s0.7,4.12-2,5.77a7,7,0,0,1-3.39,1.05Z"/><path d="M-1,151.22C87.1,146.07,158.41,88.75,231.59,45.91,253.69,33,276.45,21.14,300.42,12c1.79-.68,1-3.58-0.8-2.89C217.84,40.21,152.25,102.25,70.15,132.62,47.26,141.09,23.4,146.8-1,148.22c-1.92.11-1.93,3.11,0,3h0Z"/></svg>