<svg id="Layer_1" data-name="Layer 1" xmlns="http://www.w3.org/2000/svg" viewBox="0 0 302.17 172.69"><title>threads</title><path d="M116.67,155.47A8.65,8.65,0,0,1,114.1,158c-3.13,2.15-6.85,1.79-9.35-1.85a6.71,6.71,0,0,1,1.79-9.82,7.21,7.21,0,0,1,3-1.32l0.46,1.41a6.35,6.35,0,0,0-2.56,1.08c-2.6,1.79-3.19,4.64-1.19,7.56,1.87,2.72,4.64,3.39,7.34,1.54a7,7,0,0,0,2-2.07Z"/><path d="M124,142.64c2.63,3.82,1.7,7.45-1.14,9.4s-6.56,1.16-8.87-2.21c-2.42-3.53-1.82-7.34,1.15-9.38S121.7,139.35,124,142.64Zm-8.5,6.11c1.63,2.37,4.38,3.62,6.64,2.07s2.12-4.54.39-7.06c-1.52-2.21-4.26-3.72-6.65-2.08S113.79,146.31,115.47,148.75Z"/><path d="M129.72,147l-7.63-11.11,1.57-1.08,7.42,3.18a38.29,38.29,0,0,1,4.48,2.24l0,0c-1.15-1.39-2.11-2.72-3.3-4.45l-3.19-4.65,1.35-.93,7.63,11.11-1.45,1-7.4-3.21a42.77,42.77,0,0,1-4.63-2.28l0,0.05c1,1.34,2,2.66,3.27,4.5l3.26,4.75Z"/><path d="M139.17,138a6.16,6.16,0,0,0,3.07-1c1.47-1,1.79-2.37,1-3.49s-1.72-1.22-3.61-.77c-2.26.6-4,.43-5.1-1.13-1.19-1.73-.64-4,1.52-5.49a6.13,6.13,0,0,1,2.83-1.14l0.41,1.44a5.36,5.36,0,0,0-2.47.92c-1.52,1-1.47,2.35-1,3.1,0.71,1,1.74,1.09,3.68.62,2.38-.57,4-0.32,5.08,1.32s0.93,4.07-1.69,5.87a7,7,0,0,1-3.32,1.24Z"/><path d="M142.5,121.9l4.52,6.58c1.71,2.49,3.54,2.79,5,1.77,1.65-1.13,2-2.95.27-5.4l-4.52-6.58,1.45-1,4.45,6.48c2.34,3.41,1.51,6-.9,7.7s-4.89,1.44-7.25-2L141,122.9Z"/><path d="M165.37,115.36c-1.15-1.49-2.53-3.29-3.46-4.68l0,0c0.51,1.56,1,3.27,1.5,5.18l1.74,6.74-1.09.75-5.43-4.06c-1.6-1.2-3-2.33-4.25-3.44l0,0c0.92,1.41,2.12,3.33,3.16,5.06l3,5-1.37.94-6.86-11.64L154,114l5.59,4.07c1.4,1.05,2.62,2,3.69,3l0,0c-0.49-1.31-.93-2.81-1.4-4.55l-1.71-6.73,1.83-1.26,8.33,10.64-1.4,1Z"/><path d="M174.79,108.4l-4.32,3,2.75,4,4.81-3.31,0.83,1.2-6.25,4.29L165,106.46l6-4.12,0.83,1.2-4.57,3.14,2.41,3.51,4.32-3Z"/><path d="M173.19,101a18.16,18.16,0,0,1,2.59-2.12,5.52,5.52,0,0,1,3.84-1.3A3.36,3.36,0,0,1,182,99.12a3.54,3.54,0,0,1-.15,4.27l0,0a3.36,3.36,0,0,1,3.17,1.12,21.37,21.37,0,0,0,3,2.46l-1.48,1a17.38,17.38,0,0,1-2.57-2.14c-1.38-1.31-2.37-1.48-3.71-.63l-1.35.93,3.31,4.81-1.43,1Zm4.91,4.08,1.47-1c1.53-1.05,1.93-2.56,1.06-3.83-1-1.43-2.46-1.35-4-.32a7.16,7.16,0,0,0-1.33,1.11Z"/><path d="M183.39,93.8L191,104.92l-1.43,1L182,94.79Z"/><path d="M192.14,101.58a6.16,6.16,0,0,0,3.07-1c1.47-1,1.79-2.37,1-3.49s-1.71-1.22-3.61-.77c-2.26.6-4,.43-5.1-1.13-1.19-1.73-.64-4,1.52-5.49a6.13,6.13,0,0,1,2.83-1.14L192.28,90a5.37,5.37,0,0,0-2.47.92c-1.52,1-1.47,2.35-1,3.1,0.71,1,1.74,1.09,3.68.63,2.38-.57,4-0.32,5.08,1.32s0.93,4.07-1.69,5.87A7,7,0,0,1,192.6,103Z"/><path d="M207.67,86.3c-1.15-1.49-2.53-3.29-3.46-4.69l0,0c0.52,1.56,1,3.26,1.5,5.18l1.74,6.74-1.09.75-5.43-4.06c-1.6-1.2-3-2.33-4.25-3.44l0,0c0.92,1.41,2.12,3.33,3.16,5.06l3,5-1.37.94L194.5,86.17l1.83-1.26L201.92,89c1.4,1.05,2.62,2,3.69,3l0,0c-0.49-1.31-.93-2.81-1.4-4.55l-1.71-6.73,1.83-1.26L212.71,90l-1.4,1Z"/><path d="M0.09,169c22.9,2.72,43.92-9.33,63-20.37,19.45-11.25,38.28-23.54,56.89-36.12C157.16,87.4,193.56,61,232.73,39,255,26.55,278,15.65,302.17,7.4c1.82-.62,1-3.52-0.8-2.89C217.28,33.25,149.52,92.72,74.6,138.32,52.56,151.74,27.13,169.23.09,166c-1.91-.23-1.9,2.77,0,3h0Z"/></svg>