<svg id="Layer_1" data-name="Layer 1" xmlns="http://www.w3.org/2000/svg" viewBox="0 0 302.17 203.94"><title>threads</title><path d="M104.19,83.07a20.22,20.22,0,0,1,2.55-2.18,5.54,5.54,0,0,1,3.72-1.32,3.63,3.63,0,0,1,2.61,1.59,4,4,0,0,1,.85,2.94,5.58,5.58,0,0,1-2.46,3.62,6,6,0,0,1-1.2.73l3.18,4.37-1.41,1Zm5.23,4.23a5.86,5.86,0,0,0,1.25-.74c1.7-1.24,2.13-2.82,1-4.32s-2.57-1.39-4.13-.26a7.28,7.28,0,0,0-1.24,1.08Z"/><path d="M125.9,75.23c2.73,3.75,1.9,7.4-.88,9.43s-6.53,1.34-8.93-2c-2.52-3.46-2-7.29.89-9.41S123.54,72,125.9,75.23Zm-8.33,6.34c1.7,2.33,4.48,3.5,6.69,1.88s2-4.6.2-7.07c-1.58-2.17-4.36-3.61-6.7-1.9S115.83,79.17,117.57,81.57Z"/><path d="M134.17,77.72l-11.49-8.31,1.52-1.11,5.61,4.13c1.54,1.13,2.91,2.16,4.13,3.23l0,0c-0.61-1.49-1.16-3.19-1.71-5l-2.08-6.73,1.5-1.1,4,13.74Z"/><path d="M142.72,63.67l-4.24,3.09,2.86,3.93,4.72-3.44,0.86,1.18-6.13,4.46L132.86,62l5.89-4.29,0.86,1.18-4.48,3.26,2.51,3.44,4.24-3.09Z"/><path d="M140.92,56.35a18.06,18.06,0,0,1,2.54-2.19,5.51,5.51,0,0,1,3.8-1.41,3.36,3.36,0,0,1,2.36,1.45,3.54,3.54,0,0,1,0,4.28l0,0a3.36,3.36,0,0,1,3.2,1,21.36,21.36,0,0,0,3,2.38L154.39,63a17.48,17.48,0,0,1-2.62-2.07c-1.42-1.27-2.41-1.41-3.73-.53l-1.33,1,3.44,4.72-1.41,1Zm5,3.94,1.44-1c1.5-1.1,1.86-2.61,1-3.86-1-1.41-2.49-1.28-4-.21a7.15,7.15,0,0,0-1.3,1.14Z"/><path d="M152.6,49.45l-3.31,2.41-0.87-1.2,8.07-5.88,0.87,1.2L154,48.42l7.07,9.7-1.42,1Z"/><path d="M168.51,52.71l-3.37-4.63-8-3.77,1.6-1.17L162.45,45c1,0.52,1.83.95,2.72,1.46l0,0c-0.21-.94-0.36-1.92-0.54-3L164,39.28l1.6-1.17,0.9,8.92,3.38,4.64Z"/><path d="M1.39,199.13C83.65,155,146,82.19,228.24,38c22.65-12.16,46.58-21.81,71.66-27.57,1.88-.43,1.08-3.33-0.8-2.89-91.47,21-159.28,90.07-231.7,144.79C45.92,168.62,23.63,183.81-.13,196.54c-1.7.91-.19,3.5,1.51,2.59h0Z"/></svg>