<svg id="Layer_1" data-name="Layer 1" xmlns="http://www.w3.org/2000/svg" viewBox="0 0 302.17 83.88"><title>threads</title><path d="M64.18,50.6l-5.1-1.22-1.13,4.73,5.68,1.36-0.34,1.42-7.37-1.76L59.05,42l7.08,1.69L65.8,45.13l-5.39-1.29-1,4.14,5.1,1.22Z"/><path d="M68.58,44.48a24.91,24.91,0,0,1,3.66.59c2.43,0.58,4,1.56,4.92,2.91a6.21,6.21,0,0,1,.72,5.15,7.13,7.13,0,0,1-3.11,4.65c-1.52.93-3.7,1.11-6.25,0.5a28.09,28.09,0,0,1-3-.89Zm-1.08,12a11,11,0,0,0,1.69.51c3.62,0.87,6.07-.69,6.91-4.23,0.76-3.09-.52-5.47-4.1-6.33a9.89,9.89,0,0,0-2-.3Z"/><path d="M83.27,47.81l-1.86,7.76c-0.7,2.94.3,4.49,2.05,4.91,1.95,0.47,3.5-.52,4.19-3.42l1.86-7.76,1.71,0.41L89.4,57.36c-1,4-3.48,5.17-6.32,4.49-2.68-.64-4.34-2.66-3.37-6.73l1.85-7.72Z"/><path d="M100.29,65.29a8.64,8.64,0,0,1-3.61-.21c-3.7-.88-5.92-3.89-4.89-8.18a6.71,6.71,0,0,1,8.5-5.25,7.23,7.23,0,0,1,3,1.33l-0.74,1.28A6.34,6.34,0,0,0,100,53.09c-3.07-.74-5.59.74-6.41,4.18-0.77,3.21.59,5.71,3.78,6.48a7,7,0,0,0,2.89.12Z"/><path d="M105.49,62.63l-2.35,3.8L101.39,66,109,54l2,0.49,1.34,14.18-1.81-.43-0.41-4.46Zm4.62-.29-0.38-4.08c-0.09-.93-0.1-1.75-0.11-2.56h0c-0.38.73-.79,1.48-1.23,2.22l-2.19,3.49Z"/><path d="M118.07,57.66l-4-1,0.34-1.44,9.71,2.32L123.79,59l-4-1L117,69.74l-1.71-.41Z"/><path d="M127.29,58.34l-3.14,13.11-1.69-.4,3.14-13.11Z"/><path d="M139.91,68.15c-1.08,4.51-4.4,6.25-7.74,5.45s-5.25-4.1-4.3-8.06c1-4.16,4.24-6.27,7.74-5.43S140.84,64.26,139.91,68.15Zm-10.23-2.22c-0.67,2.8.25,5.67,2.91,6.31s4.79-1.47,5.51-4.44c0.62-2.61-.09-5.66-2.91-6.33S130.38,63,129.69,65.93Z"/><path d="M140.51,75.37l3.14-13.11,1.85,0.44,2.62,7.64a38.3,38.3,0,0,1,1.33,4.82h0c0.26-1.79.61-3.39,1.1-5.44l1.31-5.49,1.6,0.38-3.14,13.11-1.71-.41-2.57-7.65a42.72,42.72,0,0,1-1.4-5H144.6c-0.3,1.68-.64,3.26-1.16,5.44l-1.34,5.6Z"/><path d="M-1.12,9C79.42,22.41,158.21,56.42,241.23,47.8a201.63,201.63,0,0,0,61.25-15.93c1.76-.78.24-3.37-1.51-2.59-74.83,33.25-158,10.5-233.29-8.33C45.16,15.31,22.58,10-.32,6.16-2.21,5.84-3,8.73-1.12,9h0Z"/></svg>